<?xml version="1.0" encoding="utf-8"?>
<!-- Generator: Adobe Illustrator 23.0.5, SVG Export Plug-In . SVG Version: 6.00 Build 0)  -->
<svg version="1.1" id="Layer_1" xmlns="http://www.w3.org/2000/svg" xmlns:xlink="http://www.w3.org/1999/xlink" x="0px" y="0px"
	 viewBox="0 0 444 166.6" style="enable-background:new 0 0 444 166.6;" xml:space="preserve">
<style type="text/css">
	.st0{fill:url(#SVGID_1_);}
	.st1{fill:#A71E22;}
	.st2{font-family:'Anurati-Regular';}
	.st3{font-size:58.7827px;}
	.st4{font-size:15.0264px;}
	.st5{fill:#FDB714;}
	.st6{font-family:'Jaapokkisubtract-Regular';}
	.st7{font-size:37.5045px;}
</style>
<g>
	<linearGradient id="SVGID_1_" gradientUnits="userSpaceOnUse" x1="90.5055" y1="166.5984" x2="90.5055" y2="-9.094947e-13">
		<stop  offset="0" style="stop-color:#A71E22"/>
		<stop  offset="1" style="stop-color:#FDB714"/>
	</linearGradient>
	<path class="st0" d="M135.65,69.16c0-12.62,0-25.03,0-37.54c-0.36-0.05-0.68-0.15-0.99-0.15c-14.01,0.03-28.03-0.16-42.03,0.18
		c-10.77,0.26-20.26,4.32-28.41,11.39C58.5,48,54.13,53.96,51.23,60.97c-0.32,0.77-0.6,1.26-1.63,1.26
		C34.25,62.19,18.9,62.2,3.54,62.2c-0.22,0-0.43-0.04-0.76-0.08c1.46-5.71,3.48-11.15,6.14-16.33c8.97-17.47,22.43-30.32,40.26-38.5
		C60.06,2.3,71.58,0,83.55,0c27.57,0,55.15,0,82.72,0c4.35,0,8.36,0.87,11.28,4.48c2.19,2.71,3.35,5.85,3.39,9.28
		C181.04,23.18,181,32.59,181,42c0.01,13.83,0.04,27.66-0.03,41.5c-0.01,2.37-0.19,4.81-0.78,7.1c-0.97,3.76-3.91,5.88-7.8,5.96
		c-4.37,0.09-8.74,0.04-13.11,0.04c-35.75,0-71.51,0-107.26,0c-0.61,0-1.22,0-2.24,0c0.23,2.12,0.05,4.24,0.73,6.03
		c6.23,16.31,17.84,26.65,34.92,30.53c3.35,0.76,6.87,1.03,10.32,1.06c12.78,0.12,25.55,0.05,38.33,0.05c0.49,0,0.99,0,1.67,0
		c0-0.82,0-1.48,0-2.14c0-6.44-0.01-12.89,0.01-19.33c0-1.01,0.04-2.02,0.13-3.02c0.33-3.43,2.98-6.13,6.43-6.15
		c12.72-0.07,25.44-0.02,38.16-0.02c0.11,0,0.21,0.06,0.53,0.15c0,1.25,0,2.57,0,3.88c0,12.21,0.03,24.42-0.02,36.64
		c-0.01,3.62,0.19,7.33-0.48,10.85c-1.22,6.46-6.28,10.6-12.85,11.06c-3.07,0.22-6.15,0.25-9.23,0.26
		c-19.33,0.04-38.66,0.06-57.99,0.07c-6.72,0-13.46,0.23-20.17-0.09c-14.56-0.69-28.22-4.57-40.64-12.37
		C20.91,142.3,8.61,125.73,2.79,104.43c-2.73-9.98-3.46-20.16-2.17-30.45c0.19-1.54-0.05-3.72,0.84-4.44
		c1.01-0.81,3.08-0.37,4.69-0.37c42.42-0.01,84.85-0.01,127.27-0.01C134.13,69.16,134.85,69.16,135.65,69.16z"/>
</g>
<g>
	<text transform="matrix(1 0 0 1 204.9985 62.0465)"><tspan x="0" y="0" class="st1 st2 st3">E</tspan><tspan x="37.38" y="0" class="st1 st2 st4"> </tspan><tspan x="41.14" y="0" class="st1 st2 st3">WA</tspan></text>
</g>
<g>
	<text transform="matrix(1 0 0 1 197.8486 110.6842)"><tspan x="0" y="0" class="st5 st6 st7">Don’t Get Mad</tspan><tspan x="0" y="45.01" class="st5 st6 st7">Get Profit</tspan></text>
</g>
</svg>
