<svg xmlns="http://www.w3.org/2000/svg" width="148" height="44" viewBox="0 0 148 44">
    <defs>
        <linearGradient id="a" x1="80.051%" x2="19.949%" y1="0%" y2="78.657%">
            <stop offset="0%" stop-color="#97FF00"/>
            <stop offset="100%" stop-color="#FFEC00"/>
        </linearGradient>
    </defs>
    <g fill="none" fill-rule="evenodd">
        <path fill="url(#a)" d="M18 15.363c-.023-.825 0-1.86 0-3.163C18 5.824 21.13 2 24.5 2S31 5.824 31 12.2c0 1.302.023 2.338 0 3.163v.137a6.502 6.502 0 0 1-4 6.002V39.5a2.5 2.5 0 1 1-5 0V21.502a6.502 6.502 0 0 1-4-6.002v-.137zM10 12V3.5a1.5 1.5 0 0 1 3 0v12a6.502 6.502 0 0 1-4 6.002V39.5a2.5 2.5 0 1 1-5 0V21.502A6.502 6.502 0 0 1 0 15.5v-12a1.5 1.5 0 0 1 3 0V12a1 1 0 0 0 2 0V3.5a1.5 1.5 0 0 1 3 0V12a1 1 0 0 0 2 0z" transform="translate(3)"/>
        <path fill="#FFF" fill-rule="nonzero" d="M51.875 18v-5.796c0-.56-.07-.966-.21-1.218-.14-.252-.371-.378-.693-.378-.238 0-.465.112-.683.336-.217.224-.325.623-.325 1.197V18h-4.851V6.954h4.725v1.218h.042c.14-.182.311-.36.514-.536.204-.175.434-.335.694-.482a3.85 3.85 0 0 1 1.922-.494c.727 0 1.357.13 1.889.388a2.87 2.87 0 0 1 1.26 1.208 4.826 4.826 0 0 1 1.344-1.134c.532-.308 1.204-.462 2.016-.462.784 0 1.431.154 1.943.462.51.308.916.693 1.217 1.155.302.462.511.962.63 1.502.12.539.179 1.039.179 1.501V18h-4.851v-5.88c0-.602-.073-1.004-.22-1.207-.148-.204-.375-.305-.683-.305-.28 0-.518.13-.714.388-.196.26-.294.641-.294 1.145V18h-4.851zm16.051-.42L63.453 6.954h5.376l1.638 5.817h.084L72 6.954h5.187l-4.536 11.718a10.954 10.954 0 0 1-.903 1.837 5.786 5.786 0 0 1-1.176 1.376 4.625 4.625 0 0 1-1.585.861c-.61.196-1.32.294-2.132.294-.252 0-.511-.01-.777-.031a12.23 12.23 0 0 1-.766-.085c-.246-.035-.473-.07-.683-.104a4.369 4.369 0 0 1-.525-.116l.609-3.99c.182.07.402.13.662.178.259.05.493.074.703.074.532 0 .927-.108 1.187-.326.259-.217.451-.493.577-.829l.084-.231zm13.265-5.145c0-.714.108-1.414.326-2.1a5.943 5.943 0 0 1 .955-1.848c.42-.546.945-.987 1.575-1.323.63-.336 1.358-.504 2.184-.504a4.45 4.45 0 0 1 1.596.304c.532.204.959.494 1.281.872h.042V2.124h4.83V18h-4.347v-1.155h-.042c-.322.448-.791.801-1.407 1.06a4.988 4.988 0 0 1-1.953.389c-.826 0-1.554-.168-2.184-.504a4.768 4.768 0 0 1-1.575-1.334 6.03 6.03 0 0 1-.955-1.879 7.194 7.194 0 0 1-.326-2.142zm4.494 0c0 .532.154.976.462 1.333.308.358.756.536 1.344.536.574 0 1.032-.182 1.376-.546.343-.364.514-.805.514-1.323 0-.49-.171-.917-.514-1.281-.344-.364-.802-.546-1.376-.546-.588 0-1.036.182-1.344.546a1.921 1.921 0 0 0-.462 1.281zm9.667-5.481h4.851V18h-4.851V6.954zm-.084-3.192c0-.336.066-.654.2-.955.133-.302.314-.564.546-.788.23-.224.5-.402.808-.536.308-.133.637-.199.987-.199.336 0 .651.066.945.2.294.133.556.311.788.535.23.224.412.486.546.788.133.3.199.619.199.955a2.389 2.389 0 0 1-.745 1.754 2.687 2.687 0 0 1-.788.514 2.373 2.373 0 0 1-.945.189 2.614 2.614 0 0 1-1.796-.704 2.389 2.389 0 0 1-.745-1.754zm13.657 7.245c0-.392-.143-.714-.43-.966-.288-.252-.676-.378-1.166-.378-.532 0-.945.147-1.239.441-.294.294-.462.595-.504.903h3.339zm4.179 1.575c0 .182-.003.367-.01.556a6.626 6.626 0 0 1-.032.473h-7.434c.014.196.08.371.2.525.119.154.266.287.44.399.176.112.371.196.589.252.217.056.437.084.661.084.448 0 .822-.08 1.124-.242.3-.16.528-.339.682-.535l3.444 1.743c-.49.798-1.2 1.428-2.131 1.89-.932.462-2.013.693-3.245.693a7.324 7.324 0 0 1-2.331-.378 5.941 5.941 0 0 1-2.006-1.123 5.489 5.489 0 0 1-1.396-1.859c-.35-.742-.525-1.603-.525-2.583 0-.91.161-1.732.483-2.468a5.53 5.53 0 0 1 1.313-1.869 5.873 5.873 0 0 1 1.952-1.186 6.81 6.81 0 0 1 2.405-.42c.868 0 1.659.15 2.373.452a5.377 5.377 0 0 1 1.838 1.26c.51.539.906 1.179 1.186 1.921.28.742.42 1.547.42 2.415zm5.635 5.712c-1.484 0-2.583-.318-3.297-.956-.714-.637-1.071-1.627-1.071-2.971v-3.948h-1.554V6.954h1.533V4.476h4.704v2.478h2.394v3.465h-2.394v2.94c0 .532.115.892.347 1.082.23.189.549.283.955.283a3.785 3.785 0 0 0 .882-.126v3.318c-.252.112-.605.203-1.06.273-.456.07-.935.105-1.439.105zM51.875 40v-5.796c0-.56-.07-.966-.21-1.218-.14-.252-.371-.378-.693-.378-.238 0-.465.112-.683.336-.217.224-.325.623-.325 1.197V40h-4.851V28.954h4.725v1.218h.042c.14-.182.311-.36.514-.535.204-.176.434-.336.694-.483a3.85 3.85 0 0 1 1.922-.494c.727 0 1.357.13 1.889.389a2.87 2.87 0 0 1 1.26 1.207 4.826 4.826 0 0 1 1.344-1.134c.532-.308 1.204-.462 2.016-.462.784 0 1.431.154 1.943.462.51.308.916.693 1.217 1.155.302.462.511.962.63 1.502.12.539.179 1.039.179 1.501V40h-4.851v-5.88c0-.602-.073-1.004-.22-1.207-.148-.204-.375-.305-.683-.305-.28 0-.518.13-.714.389-.196.259-.294.64-.294 1.144V40h-4.851zm20.209-6.993c0-.392-.143-.714-.43-.966-.288-.252-.676-.378-1.166-.378-.532 0-.945.147-1.239.441-.294.294-.462.595-.504.903h3.339zm4.179 1.575c0 .182-.003.367-.01.556a6.626 6.626 0 0 1-.032.473h-7.434c.014.196.08.371.2.525.119.154.265.287.44.399.176.112.371.196.589.252.217.056.437.084.661.084.448 0 .822-.08 1.124-.242.3-.16.528-.339.682-.535l3.444 1.743c-.49.798-1.2 1.428-2.131 1.89-.932.462-2.013.693-3.245.693a7.324 7.324 0 0 1-2.331-.378 5.941 5.941 0 0 1-2.005-1.123 5.489 5.489 0 0 1-1.397-1.859c-.35-.742-.525-1.603-.525-2.583 0-.91.161-1.732.483-2.467a5.53 5.53 0 0 1 1.313-1.87 5.873 5.873 0 0 1 1.953-1.186 6.81 6.81 0 0 1 2.404-.42c.868 0 1.659.15 2.373.451a5.377 5.377 0 0 1 1.838 1.26c.51.54.906 1.18 1.186 1.922.28.742.42 1.547.42 2.415zm6.601.84c-.714 0-1.288.077-1.722.231-.434.154-.651.441-.651.861 0 .154.035.283.105.389a.89.89 0 0 0 .273.262c.112.07.234.122.368.157.133.036.255.053.367.053.462 0 .833-.147 1.113-.441.28-.294.42-.672.42-1.134v-.378h-.273zm-.042-2.436c0-.336-.115-.584-.346-.745-.232-.162-.536-.242-.914-.242-.448 0-.871.094-1.27.284a5.14 5.14 0 0 0-1.061.661l-2.415-2.394a6.997 6.997 0 0 1 2.394-1.491 7.998 7.998 0 0 1 2.856-.525c1.05 0 1.918.147 2.604.441.686.294 1.228.7 1.628 1.218.399.518.678 1.12.84 1.806.16.686.241 1.414.241 2.184V40H82.99v-.882h-.042c-.28.42-.679.721-1.197.903a4.548 4.548 0 0 1-1.512.273c-.434 0-.878-.063-1.333-.189a3.658 3.658 0 0 1-1.24-.609 3.258 3.258 0 0 1-.913-1.092c-.238-.448-.357-1.001-.357-1.659 0-.77.2-1.396.599-1.88a4.085 4.085 0 0 1 1.522-1.134 7.413 7.413 0 0 1 2.069-.556 17.55 17.55 0 0 1 2.236-.147v-.042zm5.677-8.862h4.956V40h-4.956V24.124zm18.452 16.17a4.503 4.503 0 0 1-1.617-.304c-.532-.204-.966-.487-1.302-.851h-.042v5.901h-4.809V28.954h4.557v1.113h.042a3.938 3.938 0 0 1 1.47-1.05 4.37 4.37 0 0 1 1.68-.357c.826 0 1.554.168 2.184.504.63.336 1.155.777 1.575 1.323.42.546.738 1.162.956 1.848.217.686.325 1.386.325 2.1 0 .728-.108 1.442-.325 2.142a6.03 6.03 0 0 1-.956 1.88c-.42.553-.941.997-1.564 1.333-.624.336-1.348.504-2.174.504zm.525-5.859c0-.49-.154-.917-.462-1.281-.308-.364-.756-.546-1.344-.546-.574 0-1.032.182-1.376.546a1.808 1.808 0 0 0-.514 1.281c0 .518.171.959.514 1.323.344.364.802.546 1.376.546.588 0 1.036-.178 1.344-.535.308-.358.462-.802.462-1.334zm5.404-10.311h4.956V40h-4.956V24.124zm12.208 11.298c-.714 0-1.288.077-1.722.231-.434.154-.651.441-.651.861 0 .154.035.283.105.389a.89.89 0 0 0 .273.262c.112.07.234.122.368.157.133.036.255.053.367.053.462 0 .833-.147 1.113-.441.28-.294.42-.672.42-1.134v-.378h-.273zm-.042-2.436c0-.336-.115-.584-.346-.745-.231-.162-.536-.242-.914-.242-.448 0-.871.094-1.27.284a5.14 5.14 0 0 0-1.061.661l-2.415-2.394a6.997 6.997 0 0 1 2.394-1.491 7.998 7.998 0 0 1 2.856-.525c1.05 0 1.918.147 2.604.441.686.294 1.228.7 1.628 1.218.399.518.679 1.12.84 1.806.16.686.241 1.414.241 2.184V40h-4.389v-.882h-.042c-.28.42-.679.721-1.197.903a4.548 4.548 0 0 1-1.512.273c-.434 0-.878-.063-1.333-.189a3.658 3.658 0 0 1-1.24-.609 3.258 3.258 0 0 1-.913-1.092c-.238-.448-.357-1.001-.357-1.659 0-.77.2-1.396.599-1.88a4.085 4.085 0 0 1 1.522-1.134 7.413 7.413 0 0 1 2.069-.556 17.55 17.55 0 0 1 2.236-.147v-.042zm5.677-4.032h4.725v1.218h.042c.28-.406.696-.76 1.25-1.06.553-.302 1.186-.452 1.9-.452.77 0 1.41.14 1.922.42.51.28.916.64 1.218 1.082.3.44.51.934.63 1.48.119.546.178 1.092.178 1.638V40h-4.872v-5.88c0-.56-.087-.952-.262-1.176-.175-.224-.438-.336-.788-.336a.955.955 0 0 0-.787.389c-.203.259-.305.633-.305 1.123V40h-4.851V28.954z"/>
    </g>
</svg>
